<svg xmlns="http://www.w3.org/2000/svg" xmlns:xlink="http://www.w3.org/1999/xlink" contentStyleType="text/css" data-diagram-type="STATE" height="580px" preserveAspectRatio="none" style="width:1871px;height:580px;background:#FFFFFF;" version="1.1" viewBox="0 0 1871 580" width="1871px" zoomAndPan="magnify"><defs><style type="text/css"><![CDATA[svg .entity {
    cursor: pointer;
}
svg.mouseover-active > g > * {
	opacity: 0.2 !important;
}
svg.mouseover-active > g > g.mouseover-highlighted {
	opacity: 1.0 !important;
}
svg.click-active > g > * {
    opacity: 0.3;
}
svg.click-active > g > g.click-highlighted {
    opacity: 1.0;
}
]]></style><script>(function (){
    function escapeForCssAttributeSelector(entityName) {
        return entityName
            ?.replaceAll('\\', '\\\\')
            ?.replaceAll('"', '\\"');
    }

	function getEdgesAndDistance1Nodes(startingNode) {
		const nodeName = startingNode.getAttribute("data-entity");
		const escapedNodeName = escapeForCssAttributeSelector(nodeName);
		let results = new Set();

        svg.querySelectorAll(`.link[data-entity-1="${escapedNodeName}"], .link[data-entity-2="${escapedNodeName}"]`).forEach(link =&gt; {
            const linkStartNodeName = link.getAttribute("data-entity-1");
            const linkEndNodeName = link.getAttribute("data-entity-2");

            if (linkStartNodeName === nodeName) {
                results.add(svg.querySelector(`[data-entity="${escapeForCssAttributeSelector(linkEndNodeName)}"]`));
                results.add(link);
            } else if (linkEndNodeName === nodeName) {
                results.add(svg.querySelector(`[data-entity="${escapeForCssAttributeSelector(linkStartNodeName)}"]`));
                results.add(link);
			}
		});

		return results;
	}

	/**
	 * @param {SVGElement} elem
	 * @param tagName in lowercase, e.g. "g" or "svg"
	 * @return {{SVGElement}} or null if no matching ancestor is found
	 */
	function findAncestorWithTagName(elem, tagName) {
		while (elem &amp;&amp; elem.nodeName.toLowerCase() !== tagName) {
			elem = elem.parentElement;
		}
		return elem;
	}

    function onClickEntity() {
        if (svg.classList.contains("click-active") &amp;&amp; this.classList.contains("click-selected")) {
            handleDeselect("click");
        } else {
            handleSelect(this, "click");
        }
    }

	function onMouseOverEntity() {
	    handleSelect(this, "mouseover");
	}

	function onMouseOutEntity() {
	    handleDeselect("mouseover");
	}

    // CSS class descriptions:
    //   xxx-active: highlight styles will be ignored when this is not added to the the parent &lt;svg&gt;.
    //   xxx-selected: lets us track which entity `&lt;g&gt;` was clicked/hovered.
    //   xxx-highlighted: when highlighting is 'active', elements without this class will be dimmed.
    //
    // 'xxx' event type will be 'hover' or 'mouseover'.
	function handleSelect(selectedEntityElem, eventType) {
	    svg.querySelectorAll(`.${eventType}-selected, .${eventType}-highlighted`).forEach(elem =&gt; {
            elem.classList.remove(`${eventType}-selected`, `${eventType}-highlighted`);
        });

        svg.classList.add(`${eventType}-active`);
        selectedEntityElem.classList.add(`${eventType}-selected`, `${eventType}-highlighted`);

        getEdgesAndDistance1Nodes(selectedEntityElem).forEach(node =&gt; {
            node.classList.add(`${eventType}-highlighted`);
        });
	}

    function handleDeselect(eventType) {
		svg.classList.remove(`${eventType}-active`);
    }

	const svg = findAncestorWithTagName(document.currentScript, "svg");

    document.addEventListener("DOMContentLoaded", () =&gt; {
        svg.querySelectorAll("g.entity").forEach(entity =&gt; {
            entity.addEventListener("mouseover", onMouseOverEntity);
            entity.addEventListener("mouseout", onMouseOutEntity);
            entity.addEventListener("click", onClickEntity);
        });

        svg.addEventListener("keydown", event =&gt; {
            if (event.code === "Escape") {
              handleDeselect("click");
            }
          });
    });
})();
</script></defs><g><g id="PendingSettlement"><rect fill="#F1F1F1" height="50.6211" rx="12.5" ry="12.5" style="stroke:#181818;stroke-width:0.5;" width="186.3418" x="19.52" y="201"/><line style="stroke:#181818;stroke-width:0.5;" x1="19.52" x2="205.8618" y1="227.4883" y2="227.4883"/><text fill="#000000" font-family="sans-serif" font-size="14" lengthAdjust="spacing" textLength="126.957" x="49.2124" y="219.5352">PendingSettlement</text><text fill="#000000" font-family="sans-serif" font-size="12" lengthAdjust="spacing" textLength="166.3418" x="24.52" y="244.0898">timeout: Timeout after PT5H</text></g><g class="entity" data-entity="Settled" data-uid="ent0003" id="entity_Settled"><polygon fill="#F1F1F1" points="112.69,360.12,124.69,372.12,112.69,384.12,100.69,372.12,112.69,360.12" style="stroke:#181818;stroke-width:0.5;"/></g><g id="Reconciled"><rect fill="#F1F1F1" height="50.6211" rx="12.5" ry="12.5" style="stroke:#181818;stroke-width:0.5;" width="92.9873" x="143.19" y="523.62"/><line style="stroke:#181818;stroke-width:0.5;" x1="143.19" x2="236.1773" y1="550.1083" y2="550.1083"/><text fill="#000000" font-family="sans-serif" font-size="14" lengthAdjust="spacing" textLength="72.9873" x="153.19" y="542.1552">Reconciled</text><text fill="#000000" font-family="sans-serif" font-size="12" lengthAdjust="spacing" textLength="3.7969" x="148.19" y="566.7098">&#160;</text></g><g id="Error"><rect fill="#F1F1F1" height="50.6211" rx="12.5" ry="12.5" style="stroke:#181818;stroke-width:0.5;" width="53.373" x="7" y="523.62"/><line style="stroke:#181818;stroke-width:0.5;" x1="7" x2="60.373" y1="550.1083" y2="550.1083"/><text fill="#000000" font-family="sans-serif" font-size="14" lengthAdjust="spacing" textLength="33.373" x="17" y="542.1552">Error</text><text fill="#000000" font-family="sans-serif" font-size="12" lengthAdjust="spacing" textLength="3.7969" x="12" y="566.7098">&#160;</text></g><g id="PendingAuthorisationResponse"><rect fill="#F1F1F1" height="50.6211" rx="12.5" ry="12.5" style="stroke:#181818;stroke-width:0.5;" width="231.415" x="862.98" y="201"/><line style="stroke:#181818;stroke-width:0.5;" x1="862.98" x2="1094.395" y1="227.4883" y2="227.4883"/><text fill="#000000" font-family="sans-serif" font-size="14" lengthAdjust="spacing" textLength="211.415" x="872.98" y="219.5352">PendingAuthorisationResponse</text><text fill="#000000" font-family="sans-serif" font-size="12" lengthAdjust="spacing" textLength="176.3555" x="867.98" y="244.0898">timeout: Rollback after PT6.6S</text></g><g id="Authorised"><rect fill="#F1F1F1" height="50.6211" rx="12.5" ry="12.5" style="stroke:#181818;stroke-width:0.5;" width="94.3955" x="961.49" y="346.81"/><line style="stroke:#181818;stroke-width:0.5;" x1="961.49" x2="1055.8855" y1="373.2983" y2="373.2983"/><text fill="#000000" font-family="sans-serif" font-size="14" lengthAdjust="spacing" textLength="74.3955" x="971.49" y="365.3452">Authorised</text><text fill="#000000" font-family="sans-serif" font-size="12" lengthAdjust="spacing" textLength="3.7969" x="966.49" y="389.8998">&#160;</text></g><g id="PendingCaptureResponse"><rect fill="#F1F1F1" height="50.6211" rx="12.5" ry="12.5" style="stroke:#181818;stroke-width:0.5;" width="193.0107" x="498.18" y="523.62"/><line style="stroke:#181818;stroke-width:0.5;" x1="498.18" x2="691.1907" y1="550.1083" y2="550.1083"/><text fill="#000000" font-family="sans-serif" font-size="14" lengthAdjust="spacing" textLength="173.0107" x="508.18" y="542.1552">PendingCaptureResponse</text><text fill="#000000" font-family="sans-serif" font-size="12" lengthAdjust="spacing" textLength="3.7969" x="503.18" y="566.7098">&#160;</text></g><g id="PendingRefundResponse"><rect fill="#F1F1F1" height="50.6211" rx="12.5" ry="12.5" style="stroke:#181818;stroke-width:0.5;" width="196.3555" x="1138.51" y="523.62"/><line style="stroke:#181818;stroke-width:0.5;" x1="1138.51" x2="1334.8655" y1="550.1083" y2="550.1083"/><text fill="#000000" font-family="sans-serif" font-size="14" lengthAdjust="spacing" textLength="167.3164" x="1153.0295" y="542.1552">PendingRefundResponse</text><text fill="#000000" font-family="sans-serif" font-size="12" lengthAdjust="spacing" textLength="176.3555" x="1143.51" y="566.7098">timeout: Rollback after PT6.6S</text></g><g id="AuthorisationFailed"><rect fill="#F1F1F1" height="50.6211" rx="12.5" ry="12.5" style="stroke:#181818;stroke-width:0.5;" width="152.0293" x="1598.67" y="346.81"/><line style="stroke:#181818;stroke-width:0.5;" x1="1598.67" x2="1750.6993" y1="373.2983" y2="373.2983"/><text fill="#000000" font-family="sans-serif" font-size="14" lengthAdjust="spacing" textLength="132.0293" x="1608.67" y="365.3452">AuthorisationFailed</text><text fill="#000000" font-family="sans-serif" font-size="12" lengthAdjust="spacing" textLength="3.7969" x="1603.67" y="389.8998">&#160;</text></g><g id="Preauthorised"><rect fill="#F1F1F1" height="50.6211" rx="12.5" ry="12.5" style="stroke:#181818;stroke-width:0.5;" width="113.7344" x="211.82" y="346.81"/><line style="stroke:#181818;stroke-width:0.5;" x1="211.82" x2="325.5544" y1="373.2983" y2="373.2983"/><text fill="#000000" font-family="sans-serif" font-size="14" lengthAdjust="spacing" textLength="93.7344" x="221.82" y="365.3452">Preauthorised</text><text fill="#000000" font-family="sans-serif" font-size="12" lengthAdjust="spacing" textLength="3.7969" x="216.82" y="389.8998">&#160;</text></g><g id="Begin"><rect fill="#F1F1F1" height="50" rx="12.5" ry="12.5" style="stroke:#181818;stroke-width:0.5;" width="57.3174" x="617.03" y="9.5"/><line style="stroke:#181818;stroke-width:0.5;" x1="617.03" x2="674.3474" y1="35.9883" y2="35.9883"/><text fill="#000000" font-family="sans-serif" font-size="14" lengthAdjust="spacing" textLength="37.3174" x="627.03" y="28.0352">Begin</text></g><!--link Begin to Begin--><g class="link" data-entity-1="Begin" data-entity-2="Begin" data-source-line="15" data-uid="lnk3" id="link_Begin_Begin"><path d="M674.82,32.36 C692.56,31.87 709.35,32.58 709.35,34.5 C709.35,36.41 698.5576,37.299 680.8176,36.799" fill="none" id="Begin-to-Begin" style="stroke:#181818;stroke-width:1;"/><polygon fill="#181818" points="674.82,36.63,683.7037,40.882,679.818,36.7709,683.9291,32.8852,674.82,36.63" style="stroke:#181818;stroke-width:1;"/><text fill="#000000" font-family="sans-serif" font-size="13" lengthAdjust="spacing" textLength="129.4985" x="756.5558" y="24.5684">AuthenticationFailed</text><text fill="#0000FF" font-family="sans-serif" font-size="13" lengthAdjust="spacing" textLength="211.9102" x="715.35" y="39.8789">FailedAuthentication &gt;&gt; Acquirer</text><text fill="#0000FF" font-family="sans-serif" font-size="13" lengthAdjust="spacing" textLength="87.731" x="777.4396" y="55.1895">&lt; BadRequest</text></g><!--link Begin to Begin--><g class="link" data-entity-1="Begin" data-entity-2="Begin" data-source-line="16" data-uid="lnk4" id="link_Begin_Begin"><path d="M674.68,32.12 C750.42,28.55 932.35,29.34 932.35,34.5 C932.35,39.66 756.4133,40.7333 680.6733,37.1533" fill="none" id="Begin-to-Begin-1" style="stroke:#181818;stroke-width:1;"/><polygon fill="#181818" points="674.68,36.87,683.4811,41.2905,679.6744,37.1061,683.8588,33.2994,674.68,36.87" style="stroke:#181818;stroke-width:1;"/><text fill="#000000" font-family="sans-serif" font-size="13" lengthAdjust="spacing" textLength="133.999" x="982.2726" y="24.5684">InvalidPaymentToken</text><text fill="#0000FF" font-family="sans-serif" font-size="13" lengthAdjust="spacing" textLength="221.8442" x="938.35" y="39.8789">FailedTokenValidation &gt;&gt; Acquirer</text><text fill="#0000FF" font-family="sans-serif" font-size="13" lengthAdjust="spacing" textLength="87.731" x="1005.4066" y="55.1895">&lt; BadRequest</text></g><!--link Begin to Begin--><g class="link" data-entity-1="Begin" data-entity-2="Begin" data-source-line="26" data-uid="lnk14" id="link_Begin_Begin"><path d="M674.57,31.83 C788.49,25.47 1165.35,26.36 1165.35,34.5 C1165.35,42.64 794.4807,43.8645 680.5607,37.5045" fill="none" id="Begin-to-Begin-2" style="stroke:#181818;stroke-width:1;"/><polygon fill="#181818" points="674.57,37.17,683.333,41.6655,679.5622,37.4487,683.779,33.6779,674.57,37.17" style="stroke:#181818;stroke-width:1;"/><text fill="#000000" font-family="sans-serif" font-size="13" lengthAdjust="spacing" textLength="103.7842" x="1171.35" y="32.0684">RollbackRequest</text><text fill="#0000FF" font-family="sans-serif" font-size="13" lengthAdjust="spacing" textLength="63.4702" x="1191.507" y="47.3789">&lt; Created</text></g><!--link Begin to Begin--><g class="link" data-entity-1="Begin" data-entity-2="Begin" data-source-line="27" data-uid="lnk15" id="link_Begin_Begin"><path d="M674.79,31.36 C806.3,22.42 1280.35,23.46 1280.35,34.5 C1280.35,45.53 812.2862,46.9874 680.7762,38.0374" fill="none" id="Begin-to-Begin-3" style="stroke:#181818;stroke-width:1;"/><polygon fill="#181818" points="674.79,37.63,683.4976,42.2319,679.7785,37.9695,684.0408,34.2503,674.79,37.63" style="stroke:#181818;stroke-width:1;"/><text fill="#000000" font-family="sans-serif" font-size="13" lengthAdjust="spacing" textLength="33.5918" x="1286.35" y="39.5684">Open</text></g><!--link Begin to Begin--><g class="link" data-entity-1="Begin" data-entity-2="Begin" data-source-line="28" data-uid="lnk16" id="link_Begin_Begin"><path d="M674.51,30.91 C814.2,19.38 1325.35,20.57 1325.35,34.5 C1325.35,48.42 820.1797,50.1136 680.4897,38.5836" fill="none" id="Begin-to-Begin-4" style="stroke:#181818;stroke-width:1;"/><polygon fill="#181818" points="674.51,38.09,683.1505,42.8168,679.4931,38.5013,683.8085,34.8439,674.51,38.09" style="stroke:#181818;stroke-width:1;"/><text fill="#000000" font-family="sans-serif" font-size="13" lengthAdjust="spacing" textLength="149.1826" x="1331.35" y="39.5684">MerchantDebitReversed</text></g><!--link Begin to Begin--><g class="link" data-entity-1="Begin" data-entity-2="Begin" data-source-line="29" data-uid="lnk17" id="link_Begin_Begin"><path d="M674.84,30.66 C836.09,16.32 1486.35,17.6 1486.35,34.5 C1486.35,51.4 842.0664,53.2015 680.8164,38.8615" fill="none" id="Begin-to-Begin-5" style="stroke:#181818;stroke-width:1;"/><polygon fill="#181818" points="674.84,38.33,683.4503,43.1115,679.8203,38.7729,684.1589,35.1429,674.84,38.33" style="stroke:#181818;stroke-width:1;"/><text fill="#000000" font-family="sans-serif" font-size="13" lengthAdjust="spacing" textLength="92.3774" x="1492.35" y="39.5684">MerchantDebit</text></g><!--link Begin to Begin--><g class="link" data-entity-1="Begin" data-entity-2="Begin" data-source-line="30" data-uid="lnk18" id="link_Begin_Begin"><path d="M674.84,30.4 C850.38,13.27 1590.35,14.64 1590.35,34.5 C1590.35,54.36 856.3517,56.3024 680.8117,39.1824" fill="none" id="Begin-to-Begin-6" style="stroke:#181818;stroke-width:1;"/><polygon fill="#181818" points="674.84,38.6,683.4092,43.4547,679.8164,39.0853,684.1858,35.4925,674.84,38.6" style="stroke:#181818;stroke-width:1;"/><text fill="#000000" font-family="sans-serif" font-size="13" lengthAdjust="spacing" textLength="96.9541" x="1596.35" y="39.5684">MerchantCredit</text></g><!--link Begin to Begin--><g class="link" data-entity-1="Begin" data-entity-2="Begin" data-source-line="51" data-uid="lnk39" id="link_Begin_Begin"><path d="M674.76,30.18 C864.45,10.22 1698.35,11.66 1698.35,34.5 C1698.35,57.34 870.417,59.4082 680.727,39.4382" fill="none" id="Begin-to-Begin-7" style="stroke:#181818;stroke-width:1;"/><polygon fill="#181818" points="674.76,38.81,683.2917,43.7303,679.7325,39.3335,684.1293,35.7743,674.76,38.81" style="stroke:#181818;stroke-width:1;"/><text fill="#000000" font-family="sans-serif" font-size="13" lengthAdjust="spacing" textLength="153.7593" x="1704.35" y="39.5684">MerchantCreditReversed</text></g><!--link Begin to PendingSettlement--><g class="link" data-entity-1="Begin" data-entity-2="PendingSettlement" data-source-line="17" data-uid="lnk5" id="link_Begin_PendingSettlement"><path d="M616.6,42.9 C577.42,53.09 505.69,72.51 445.69,93 C347.52,126.52 241.472,170.1632 175.612,198.1532" fill="none" id="Begin-to-PendingSettlement" style="stroke:#181818;stroke-width:1;"/><polygon fill="#181818" points="170.09,200.5,179.9375,200.6611,174.6917,198.5443,176.8085,193.2985,170.09,200.5" style="stroke:#181818;stroke-width:1;"/><text fill="#000000" font-family="sans-serif" font-size="13" lengthAdjust="spacing" textLength="92.0283" x="485.8614" y="122.0684">CutOffRequest</text><text fill="#0000FF" font-family="sans-serif" font-size="13" lengthAdjust="spacing" textLength="170.3711" x="446.69" y="137.3789">Reconciliation &gt;&gt; Acquirer</text><text fill="#0000FF" font-family="sans-serif" font-size="13" lengthAdjust="spacing" textLength="63.4702" x="500.1404" y="152.6895">&lt; Created</text></g><!--link PendingSettlement to PendingSettlement--><g class="link" data-entity-1="PendingSettlement" data-entity-2="PendingSettlement" data-source-line="18" data-uid="lnk6" id="link_PendingSettlement_PendingSettlement"><path d="M206.29,223.07 C226.35,223.39 240.86,224.47 240.86,226.31 C240.86,228.15 232.3492,229.1213 212.2892,229.4513" fill="none" id="PendingSettlement-to-PendingSettlement" style="stroke:#181818;stroke-width:1;"/><polygon fill="#181818" points="206.29,229.55,215.3546,233.4014,211.2893,229.4678,215.223,225.4025,206.29,229.55" style="stroke:#181818;stroke-width:1;"/><text fill="#000000" font-family="sans-serif" font-size="13" lengthAdjust="spacing" textLength="92.3774" x="246.86" y="231.3784">MerchantDebit</text></g><!--link PendingSettlement to PendingSettlement--><g class="link" data-entity-1="PendingSettlement" data-entity-2="PendingSettlement" data-source-line="19" data-uid="lnk7" id="link_PendingSettlement_PendingSettlement"><path d="M206.07,220.13 C272.56,218.56 344.86,220.62 344.86,226.31 C344.86,231.99 278.5583,234.1907 212.0683,232.6307" fill="none" id="PendingSettlement-to-PendingSettlement-1" style="stroke:#181818;stroke-width:1;"/><polygon fill="#181818" points="206.07,232.49,214.9737,236.7,211.0686,232.6073,215.1613,228.7022,206.07,232.49" style="stroke:#181818;stroke-width:1;"/><text fill="#000000" font-family="sans-serif" font-size="13" lengthAdjust="spacing" textLength="149.1826" x="350.86" y="231.3784">MerchantDebitReversed</text></g><!--link PendingSettlement to PendingSettlement--><g class="link" data-entity-1="PendingSettlement" data-entity-2="PendingSettlement" data-source-line="23" data-uid="lnk11" id="link_PendingSettlement_PendingSettlement"><path d="M206.23,218.61 C326.14,213.83 505.86,216.4 505.86,226.31 C505.86,236.22 332.1352,239.019 212.2252,234.239" fill="none" id="PendingSettlement-to-PendingSettlement-2" style="stroke:#181818;stroke-width:1;"/><polygon fill="#181818" points="206.23,234,215.0635,238.3553,211.226,234.1992,215.3822,230.3617,206.23,234" style="stroke:#181818;stroke-width:1;"/><text fill="#000000" font-family="sans-serif" font-size="13" lengthAdjust="spacing" textLength="96.9541" x="511.86" y="231.3784">MerchantCredit</text></g><!--link PendingSettlement to PendingSettlement--><g class="link" data-entity-1="PendingSettlement" data-entity-2="PendingSettlement" data-source-line="24" data-uid="lnk12" id="link_PendingSettlement_PendingSettlement"><path d="M206.12,217.12 C356.37,209.35 613.86,212.41 613.86,226.31 C613.86,240.21 362.362,243.5803 212.112,235.8003" fill="none" id="PendingSettlement-to-PendingSettlement-3" style="stroke:#181818;stroke-width:1;"/><polygon fill="#181818" points="206.12,235.49,214.9011,239.95,211.1133,235.7486,215.3148,231.9608,206.12,235.49" style="stroke:#181818;stroke-width:1;"/><text fill="#000000" font-family="sans-serif" font-size="13" lengthAdjust="spacing" textLength="153.7593" x="619.86" y="231.3784">MerchantCreditReversed</text></g><!--link PendingSettlement to Settled--><g class="link" data-entity-1="PendingSettlement" data-entity-2="Settled" data-source-line="20" data-uid="lnk8" id="link_PendingSettlement_Settled"><path d="M112.69,252.03 C112.69,283.51 112.69,330.59 112.69,353.75" fill="none" id="PendingSettlement-to-Settled" style="stroke:#181818;stroke-width:1;"/><polygon fill="#181818" points="112.69,359.75,116.69,350.75,112.69,354.75,108.69,350.75,112.69,359.75" style="stroke:#181818;stroke-width:1;"/><text fill="#000000" font-family="sans-serif" font-size="13" lengthAdjust="spacing" textLength="128.0703" x="113.69" y="302.6884">SettlementApproved</text></g><!--link Settled to Reconciled--><g class="link" data-entity-1="Settled" data-entity-2="Reconciled" data-source-line="21" data-uid="lnk9" id="link_Settled_Reconciled"><path d="M117.73,379.51 C125.64,389.78 141.06,410.82 150.69,430.62 C165.61,461.31 175.4821,493.3358 182.0021,517.5858" fill="none" id="Settled-to-Reconciled" style="stroke:#181818;stroke-width:1;"/><polygon fill="#181818" points="183.56,523.38,185.086,513.6501,182.2618,518.5515,177.3604,515.7272,183.56,523.38" style="stroke:#181818;stroke-width:1;"/><text fill="#000000" font-family="sans-serif" font-size="13" lengthAdjust="spacing" textLength="59.376" x="241.0344" y="459.6884">InBalance</text><text fill="#0000FF" font-family="sans-serif" font-size="13" lengthAdjust="spacing" textLength="189.8647" x="175.79" y="474.9989">ApprovedCutOff &gt;&gt; Merchant</text></g><!--link Settled to Error--><g class="link" data-entity-1="Settled" data-entity-2="Error" data-source-line="22" data-uid="lnk10" id="link_Settled_Error"><path d="M106.13,377.62 C94.02,386.33 68.23,406.72 55.69,430.62 C40.28,459.98 35.8766,492.4694 34.4866,517.2094" fill="none" id="Settled-to-Error" style="stroke:#181818;stroke-width:1;"/><polygon fill="#181818" points="34.15,523.2,38.6486,514.4386,34.4305,518.2079,30.6612,513.9898,34.15,523.2" style="stroke:#181818;stroke-width:1;"/><text fill="#000000" font-family="sans-serif" font-size="13" lengthAdjust="spacing" textLength="85.4712" x="56.69" y="467.1884">OutOfBalance</text></g><!--link PendingSettlement to Error--><g class="link" data-entity-1="PendingSettlement" data-entity-2="Error" data-source-line="25" data-uid="lnk13" id="link_PendingSettlement_Error"><path d="M88.02,251.95 C67.93,273.89 41.11,307.94 29.69,343.62 C9.78,405.79 19.4008,478.2511 27.0408,517.4011" fill="none" id="PendingSettlement-to-Error" style="stroke:#181818;stroke-width:1;"/><polygon fill="#181818" points="28.19,523.29,30.3921,513.6905,27.2323,518.3826,22.5403,515.2228,28.19,523.29" style="stroke:#181818;stroke-width:1;"/><text fill="#000000" font-family="sans-serif" font-size="13" lengthAdjust="spacing" textLength="52.2729" x="30.69" y="377.1884">Timeout</text></g><!--link Begin to PendingAuthorisationResponse--><g class="link" data-entity-1="Begin" data-entity-2="PendingAuthorisationResponse" data-source-line="31" data-uid="lnk19" id="link_Begin_PendingAuthorisationResponse"><path d="M636.43,59.76 C626.78,89.65 616.38,140.24 642.69,171 C670.61,203.65 791.28,194.11 833.69,201 C843.13,202.53 847.0099,203.1644 856.8399,204.7844" fill="none" id="Begin-to-PendingAuthorisationResponse" style="stroke:#181818;stroke-width:1;"/><polygon fill="#181818" points="862.76,205.76,854.5302,200.3498,857.8265,204.947,853.2294,208.2433,862.76,205.76" style="stroke:#181818;stroke-width:1;"/><text fill="#000000" font-family="sans-serif" font-size="13" lengthAdjust="spacing" textLength="135.9541" x="721.4647" y="106.5684">AuthorisationRequest</text><text fill="#0000FF" font-family="sans-serif" font-size="13" lengthAdjust="spacing" textLength="157.5869" x="710.6483" y="121.8789">Authorisation &gt; Acquirer</text><text fill="#0000FF" font-family="sans-serif" font-size="13" lengthAdjust="spacing" textLength="63.4702" x="757.7066" y="137.1895">&lt; Created</text><text fill="#FF0000" font-family="sans-serif" font-size="13" lengthAdjust="spacing" textLength="220.2383" x="679.3226" y="152.5">AuthorisationReversal &gt;&gt; Acquirer</text><text fill="#FF0000" font-family="sans-serif" font-size="13" lengthAdjust="spacing" textLength="291.5034" x="643.69" y="167.8105">RolledBackAuthorisationRequest &gt;&gt; Merchant</text></g><!--link Begin to PendingAuthorisationResponse--><g class="link" data-entity-1="Begin" data-entity-2="PendingAuthorisationResponse" data-source-line="50" data-uid="lnk38" id="link_Begin_PendingAuthorisationResponse"><path d="M674.72,37.41 C741.05,42.35 900.94,57.72 939.69,93 C970.05,120.65 976.9542,164.6368 978.3842,194.6268" fill="none" id="Begin-to-PendingAuthorisationResponse-1" style="stroke:#181818;stroke-width:1;"/><polygon fill="#181818" points="978.67,200.62,982.2368,191.4397,978.4319,195.6257,974.2459,191.8207,978.67,200.62" style="stroke:#181818;stroke-width:1;"/><text fill="#000000" font-family="sans-serif" font-size="13" lengthAdjust="spacing" textLength="153.9116" x="1053.8647" y="106.5684">PreauthorisationRequest</text><text fill="#0000FF" font-family="sans-serif" font-size="13" lengthAdjust="spacing" textLength="175.5444" x="1043.0483" y="121.8789">Preauthorisation &gt; Acquirer</text><text fill="#0000FF" font-family="sans-serif" font-size="13" lengthAdjust="spacing" textLength="63.4702" x="1099.0854" y="137.1895">&lt; Created</text><text fill="#FF0000" font-family="sans-serif" font-size="13" lengthAdjust="spacing" textLength="238.1958" x="1011.7226" y="152.5">PreauthorisationReversal &gt;&gt; Acquirer</text><text fill="#FF0000" font-family="sans-serif" font-size="13" lengthAdjust="spacing" textLength="309.4609" x="976.09" y="167.8105">RolledBackPreauthorisationRequest &gt;&gt; Merchant</text></g><!--link PendingAuthorisationResponse to PendingAuthorisationResponse--><g class="link" data-entity-1="PendingAuthorisationResponse" data-entity-2="PendingAuthorisationResponse" data-source-line="32" data-uid="lnk20" id="link_PendingAuthorisationResponse_PendingAuthorisationResponse"><path d="M1094.64,213.75 C1115.12,215.4 1129.39,219.59 1129.39,226.31 C1129.39,233.03 1121.1006,236.7382 1100.6206,238.3882" fill="none" id="PendingAuthorisationResponse-to-PendingAuthorisationResponse" style="stroke:#181818;stroke-width:1;"/><polygon fill="#181818" points="1094.64,238.87,1103.9322,242.1343,1099.6239,238.4685,1103.2897,234.1602,1094.64,238.87" style="stroke:#181818;stroke-width:1;"/><text fill="#000000" font-family="sans-serif" font-size="13" lengthAdjust="spacing" textLength="103.7842" x="1135.39" y="223.8784">RollbackRequest</text><text fill="#0000FF" font-family="sans-serif" font-size="13" lengthAdjust="spacing" textLength="63.4702" x="1155.547" y="239.1889">&lt; Created</text></g><!--link PendingAuthorisationResponse to Authorised--><g class="link" data-entity-1="PendingAuthorisationResponse" data-entity-2="Authorised" data-source-line="33" data-uid="lnk21" id="link_PendingAuthorisationResponse_Authorised"><path d="M983.84,252.03 C989.37,278.53 996.8633,314.4667 1002.3733,340.8467" fill="none" id="PendingAuthorisationResponse-to-Authorised" style="stroke:#181818;stroke-width:1;"/><polygon fill="#181818" points="1003.6,346.72,1005.6754,337.0923,1002.5777,341.8256,997.8444,338.728,1003.6,346.72" style="stroke:#181818;stroke-width:1;"/><text fill="#000000" font-family="sans-serif" font-size="13" lengthAdjust="spacing" textLength="146.3008" x="1041.1149" y="295.1884">AuthorisationApproved</text><text fill="#0000FF" font-family="sans-serif" font-size="13" lengthAdjust="spacing" textLength="233.7905" x="997.37" y="310.4989">ApprovedAuthorisation &gt;&gt; Merchant</text></g><!--link Authorised to Authorised--><g class="link" data-entity-1="Authorised" data-entity-2="Authorised" data-source-line="34" data-uid="lnk22" id="link_Authorised_Authorised"><path d="M1055.99,367.49 C1074.96,367.23 1090.88,368.77 1090.88,372.12 C1090.88,375.47 1080.9594,377.0922 1061.9894,376.8322" fill="none" id="Authorised-to-Authorised" style="stroke:#181818;stroke-width:1;"/><polygon fill="#181818" points="1055.99,376.75,1064.9343,380.873,1060.9895,376.8185,1065.044,372.8737,1055.99,376.75" style="stroke:#181818;stroke-width:1;"/><text fill="#000000" font-family="sans-serif" font-size="13" lengthAdjust="spacing" textLength="103.7842" x="1096.88" y="369.6884">RollbackRequest</text><text fill="#0000FF" font-family="sans-serif" font-size="13" lengthAdjust="spacing" textLength="63.4702" x="1117.037" y="384.9989">&lt; Created</text></g><!--link Authorised to Authorised--><g class="link" data-entity-1="Authorised" data-entity-2="Authorised" data-source-line="35" data-uid="lnk23" id="link_Authorised_Authorised"><path d="M1055.98,365.13 C1116.94,360.48 1205.88,362.81 1205.88,372.12 C1205.88,381.43 1122.9225,384.2173 1061.9625,379.5573" fill="none" id="Authorised-to-Authorised-1" style="stroke:#181818;stroke-width:1;"/><polygon fill="#181818" points="1055.98,379.1,1064.6489,383.7744,1060.9655,379.4811,1065.2587,375.7976,1055.98,379.1" style="stroke:#181818;stroke-width:1;"/><text fill="#000000" font-family="sans-serif" font-size="13" lengthAdjust="spacing" textLength="166.1245" x="1220.151" y="362.1884">CaptureRequestedTooLate</text><text fill="#0000FF" font-family="sans-serif" font-size="13" lengthAdjust="spacing" textLength="182.6665" x="1211.88" y="377.4989">CaptureTooLate &gt;&gt; Acquirer</text><text fill="#0000FF" font-family="sans-serif" font-size="13" lengthAdjust="spacing" textLength="87.731" x="1259.3478" y="392.8095">&lt; BadRequest</text></g><!--link Authorised to Authorised--><g class="link" data-entity-1="Authorised" data-entity-2="Authorised" data-source-line="36" data-uid="lnk24" id="link_Authorised_Authorised"><path d="M1056.17,364.27 C1164.74,354.03 1399.88,356.64 1399.88,372.12 C1399.88,387.6 1170.7134,390.7739 1062.1434,380.5239" fill="none" id="Authorised-to-Authorised-2" style="stroke:#181818;stroke-width:1;"/><polygon fill="#181818" points="1056.17,379.96,1064.7542,384.7882,1061.1479,380.43,1065.5061,376.8236,1056.17,379.96" style="stroke:#181818;stroke-width:1;"/><text fill="#000000" font-family="sans-serif" font-size="13" lengthAdjust="spacing" textLength="133.2119" x="1405.88" y="377.1884">AuthorisationExpired</text></g><!--link Authorised to PendingCaptureResponse--><g class="link" data-entity-1="Authorised" data-entity-2="PendingCaptureResponse" data-source-line="37" data-uid="lnk25" id="link_Authorised_PendingCaptureResponse"><path d="M960.99,395.28 C955.25,397.36 949.4,399.21 943.69,400.62 C905.58,410.05 618.24,401.71 591.69,430.62 C568.95,455.38 574.9468,491.2337 583.3768,517.6637" fill="none" id="Authorised-to-PendingCaptureResponse" style="stroke:#181818;stroke-width:1;"/><polygon fill="#181818" points="585.2,523.38,586.276,513.5901,583.6806,518.6164,578.6543,516.0211,585.2,523.38" style="stroke:#181818;stroke-width:1;"/><text fill="#000000" font-family="sans-serif" font-size="13" lengthAdjust="spacing" textLength="100.293" x="608.6734" y="452.1884">CaptureRequest</text><text fill="#0000FF" font-family="sans-serif" font-size="13" lengthAdjust="spacing" textLength="132.2598" x="592.69" y="467.4989">Capture &gt;&gt; Acquirer</text><text fill="#0000FF" font-family="sans-serif" font-size="13" lengthAdjust="spacing" textLength="63.4702" x="627.0848" y="482.8095">&lt; Created</text></g><!--link PendingCaptureResponse to Authorised--><g class="link" data-entity-1="PendingCaptureResponse" data-entity-2="Authorised" data-source-line="38" data-uid="lnk26" id="link_PendingCaptureResponse_Authorised"><path d="M675.33,523.25 C694.15,515.44 713.43,505.63 729.69,493.62 C758.66,472.21 749.72,449.02 780.69,430.62 C844.01,392.99 873.12,421.76 943.69,400.62 C949.44,398.9 949.7628,398.9552 955.5928,396.7352" fill="none" id="PendingCaptureResponse-to-Authorised" style="stroke:#181818;stroke-width:1;"/><polygon fill="#181818" points="961.2,394.6,951.3657,394.0646,956.5273,396.3793,954.2126,401.5409,961.2,394.6" style="stroke:#181818;stroke-width:1;"/><text fill="#000000" font-family="sans-serif" font-size="13" lengthAdjust="spacing" textLength="110.6396" x="825.4349" y="459.6884">CaptureApproved</text><text fill="#0000FF" font-family="sans-serif" font-size="13" lengthAdjust="spacing" textLength="198.1294" x="781.69" y="474.9989">ApprovedCapture &gt;&gt; Merchant</text></g><!--link Authorised to PendingRefundResponse--><g class="link" data-entity-1="Authorised" data-entity-2="PendingRefundResponse" data-source-line="39" data-uid="lnk27" id="link_Authorised_PendingRefundResponse"><path d="M1056.36,375.63 C1098.76,380.35 1159.74,393.63 1197.69,430.62 C1223.05,455.34 1231.2213,490.9708 1234.3213,517.4108" fill="none" id="Authorised-to-PendingRefundResponse" style="stroke:#181818;stroke-width:1;"/><polygon fill="#181818" points="1235.02,523.37,1237.9447,513.9654,1234.4378,518.404,1229.9992,514.897,1235.02,523.37" style="stroke:#181818;stroke-width:1;"/><text fill="#000000" font-family="sans-serif" font-size="13" lengthAdjust="spacing" textLength="95.0054" x="1283.791" y="444.1884">RefundRequest</text><text fill="#0000FF" font-family="sans-serif" font-size="13" lengthAdjust="spacing" textLength="202.1475" x="1230.22" y="459.4989">RefundAuthorisation &gt; Acquirer</text><text fill="#0000FF" font-family="sans-serif" font-size="13" lengthAdjust="spacing" textLength="63.4702" x="1299.5586" y="474.8095">&lt; Created</text><text fill="#FF0000" font-family="sans-serif" font-size="13" lengthAdjust="spacing" textLength="179.2896" x="1241.649" y="490.12">RefundReversal &gt;&gt; Acquirer</text></g><!--link PendingRefundResponse to Authorised--><g class="link" data-entity-1="PendingRefundResponse" data-entity-2="Authorised" data-source-line="40" data-uid="lnk28" id="link_PendingRefundResponse_Authorised"><path d="M1335.13,533.5 C1380.79,524.59 1427.99,511.42 1441.69,493.62 C1458.76,471.43 1460.14,451.68 1441.69,430.62 C1416.55,401.92 1169.3277,383.1933 1062.1677,376.3333" fill="none" id="PendingRefundResponse-to-Authorised" style="stroke:#181818;stroke-width:1;"/><polygon fill="#181818" points="1056.18,375.95,1064.9061,380.5168,1061.1698,376.2694,1065.4172,372.5331,1056.18,375.95" style="stroke:#181818;stroke-width:1;"/><text fill="#000000" font-family="sans-serif" font-size="13" lengthAdjust="spacing" textLength="105.3521" x="1499.7549" y="459.6884">RefundApproved</text><text fill="#0000FF" font-family="sans-serif" font-size="13" lengthAdjust="spacing" textLength="192.8418" x="1456.01" y="474.9989">ApprovedRefund &gt;&gt; Merchant</text></g><!--link PendingRefundResponse to Authorised--><g class="link" data-entity-1="PendingRefundResponse" data-entity-2="Authorised" data-source-line="42" data-uid="lnk30" id="link_PendingRefundResponse_Authorised"><path d="M1138.07,537.46 C1081.77,529.22 1019.02,515.41 1001.69,493.62 C980.17,466.56 987.3276,429.99 996.5376,403.38" fill="none" id="PendingRefundResponse-to-Authorised-1" style="stroke:#181818;stroke-width:1;"/><polygon fill="#181818" points="998.5,397.71,991.7763,404.9067,996.8646,402.435,999.3363,407.5233,998.5,397.71" style="stroke:#181818;stroke-width:1;"/><text fill="#000000" font-family="sans-serif" font-size="13" lengthAdjust="spacing" textLength="108.1641" x="1041.9566" y="459.6884">AcquirerDeclined</text><text fill="#0000FF" font-family="sans-serif" font-size="13" lengthAdjust="spacing" textLength="186.6973" x="1002.69" y="474.9989">DeclinedRefund &gt;&gt; Merchant</text></g><!--link PendingRefundResponse to PendingRefundResponse--><g class="link" data-entity-1="PendingRefundResponse" data-entity-2="PendingRefundResponse" data-source-line="41" data-uid="lnk29" id="link_PendingRefundResponse_PendingRefundResponse"><path d="M1335.13,533.25 C1355.35,534.93 1369.86,540.16 1369.86,548.93 C1369.86,557.7 1361.3294,562.4332 1341.1094,564.1132" fill="none" id="PendingRefundResponse-to-PendingRefundResponse" style="stroke:#181818;stroke-width:1;"/><polygon fill="#181818" points="1335.13,564.61,1344.4303,567.8511,1340.1128,564.196,1343.7679,559.8785,1335.13,564.61" style="stroke:#181818;stroke-width:1;"/><text fill="#000000" font-family="sans-serif" font-size="13" lengthAdjust="spacing" textLength="103.7842" x="1375.86" y="546.4984">RollbackRequest</text><text fill="#0000FF" font-family="sans-serif" font-size="13" lengthAdjust="spacing" textLength="63.4702" x="1396.017" y="561.8089">&lt; Created</text></g><!--link PendingAuthorisationResponse to AuthorisationFailed--><g class="link" data-entity-1="PendingAuthorisationResponse" data-entity-2="AuthorisationFailed" data-source-line="43" data-uid="lnk31" id="link_PendingAuthorisationResponse_AuthorisationFailed"><path d="M1094.73,246.25 C1216.68,266.96 1413.75,302.69 1581.69,343.62 C1587.08,344.93 1586.8464,344.8098 1592.4164,346.3098" fill="none" id="PendingAuthorisationResponse-to-AuthorisationFailed" style="stroke:#181818;stroke-width:1;"/><polygon fill="#181818" points="1598.21,347.87,1590.5598,341.6673,1593.382,346.5698,1588.4795,349.3921,1598.21,347.87" style="stroke:#181818;stroke-width:1;"/><text fill="#000000" font-family="sans-serif" font-size="13" lengthAdjust="spacing" textLength="108.1641" x="1494.561" y="295.1884">AcquirerDeclined</text><text fill="#0000FF" font-family="sans-serif" font-size="13" lengthAdjust="spacing" textLength="227.646" x="1434.82" y="310.4989">DeclinedAuthorisation &gt;&gt; Merchant</text></g><!--link PendingAuthorisationResponse to Preauthorised--><g class="link" data-entity-1="PendingAuthorisationResponse" data-entity-2="Preauthorised" data-source-line="44" data-uid="lnk32" id="link_PendingAuthorisationResponse_Preauthorised"><path d="M862.64,250.81 C708.51,282.03 448.1106,334.7788 331.7506,358.3488" fill="none" id="PendingAuthorisationResponse-to-Preauthorised" style="stroke:#181818;stroke-width:1;"/><polygon fill="#181818" points="325.87,359.54,335.485,361.6736,330.7705,358.5474,333.8967,353.8329,325.87,359.54" style="stroke:#181818;stroke-width:1;"/><text fill="#000000" font-family="sans-serif" font-size="13" lengthAdjust="spacing" textLength="164.2583" x="752.9049" y="295.1884">PreauthorisationApproved</text><text fill="#0000FF" font-family="sans-serif" font-size="13" lengthAdjust="spacing" textLength="251.748" x="709.16" y="310.4989">ApprovedPreauthorisation &gt;&gt; Merchant</text></g><!--link Preauthorised to PendingCaptureResponse--><g class="link" data-entity-1="Preauthorised" data-entity-2="PendingCaptureResponse" data-source-line="45" data-uid="lnk33" id="link_Preauthorised_PendingCaptureResponse"><path d="M324.95,397.82 C341.7,406.72 359.37,417.78 373.69,430.62 C399.11,453.42 390.08,473.51 417.69,493.62 C441.2,510.74 464.4515,520.8649 492.1315,528.9649" fill="none" id="Preauthorised-to-PendingCaptureResponse" style="stroke:#181818;stroke-width:1;"/><polygon fill="#181818" points="497.89,530.65,490.3756,524.2833,493.0912,529.2457,488.1288,531.9613,497.89,530.65" style="stroke:#181818;stroke-width:1;"/><text fill="#000000" font-family="sans-serif" font-size="13" lengthAdjust="spacing" textLength="100.293" x="434.6734" y="452.1884">CaptureRequest</text><text fill="#0000FF" font-family="sans-serif" font-size="13" lengthAdjust="spacing" textLength="132.2598" x="418.69" y="467.4989">Capture &gt;&gt; Acquirer</text><text fill="#0000FF" font-family="sans-serif" font-size="13" lengthAdjust="spacing" textLength="63.4702" x="453.0848" y="482.8095">&lt; Created</text></g><!--link Preauthorised to Preauthorised--><g class="link" data-entity-1="Preauthorised" data-entity-2="Preauthorised" data-source-line="46" data-uid="lnk34" id="link_Preauthorised_Preauthorised"><path d="M325.65,368.63 C345,368.61 360.55,369.77 360.55,372.12 C360.55,374.47 351,375.6362 331.65,375.6162" fill="none" id="Preauthorised-to-Preauthorised" style="stroke:#181818;stroke-width:1;"/><polygon fill="#181818" points="325.65,375.61,334.6459,379.6193,330.65,375.6152,334.6541,371.6193,325.65,375.61" style="stroke:#181818;stroke-width:1;"/><text fill="#000000" font-family="sans-serif" font-size="13" lengthAdjust="spacing" textLength="133.2119" x="366.55" y="377.1884">AuthorisationExpired</text></g><!--link Preauthorised to Preauthorised--><g class="link" data-entity-1="Preauthorised" data-entity-2="Preauthorised" data-source-line="47" data-uid="lnk35" id="link_Preauthorised_Preauthorised"><path d="M325.82,366.77 C398.37,363.43 505.55,365.21 505.55,372.12 C505.55,379.03 404.3636,381.0868 331.8136,377.7368" fill="none" id="Preauthorised-to-Preauthorised-1" style="stroke:#181818;stroke-width:1;"/><polygon fill="#181818" points="325.82,377.46,334.6259,381.8709,330.8147,377.6906,334.9949,373.8794,325.82,377.46" style="stroke:#181818;stroke-width:1;"/><text fill="#000000" font-family="sans-serif" font-size="13" lengthAdjust="spacing" textLength="41.9009" x="522.3347" y="369.6884">Cancel</text><text fill="#0000FF" font-family="sans-serif" font-size="13" lengthAdjust="spacing" textLength="63.4702" x="511.55" y="384.9989">&lt; Created</text></g><!--link Preauthorised to Preauthorised--><g class="link" data-entity-1="Preauthorised" data-entity-2="Preauthorised" data-source-line="48" data-uid="lnk36" id="link_Preauthorised_Preauthorised"><path d="M325.72,365.14 C419.97,358.77 580.55,361.1 580.55,372.12 C580.55,383.14 425.9563,385.8752 331.7063,379.4952" fill="none" id="Preauthorised-to-Preauthorised-2" style="stroke:#181818;stroke-width:1;"/><polygon fill="#181818" points="325.72,379.09,334.4293,383.6887,330.7086,379.4277,334.9696,375.707,325.72,379.09" style="stroke:#181818;stroke-width:1;"/><text fill="#000000" font-family="sans-serif" font-size="13" lengthAdjust="spacing" textLength="103.7842" x="586.55" y="369.6884">RollbackRequest</text><text fill="#0000FF" font-family="sans-serif" font-size="13" lengthAdjust="spacing" textLength="63.4702" x="606.707" y="384.9989">&lt; Created</text></g><!--link Preauthorised to Preauthorised--><g class="link" data-entity-1="Preauthorised" data-entity-2="Preauthorised" data-source-line="49" data-uid="lnk37" id="link_Preauthorised_Preauthorised"><path d="M325.82,364.13 C448.4,354.05 695.55,356.71 695.55,372.12 C695.55,387.52 454.3798,390.6817 331.7998,380.6017" fill="none" id="Preauthorised-to-Preauthorised-3" style="stroke:#181818;stroke-width:1;"/><polygon fill="#181818" points="325.82,380.11,334.4619,384.8341,330.8032,380.5198,335.1175,376.8611,325.82,380.11" style="stroke:#181818;stroke-width:1;"/><text fill="#000000" font-family="sans-serif" font-size="13" lengthAdjust="spacing" textLength="166.1245" x="709.821" y="362.1884">CaptureRequestedTooLate</text><text fill="#0000FF" font-family="sans-serif" font-size="13" lengthAdjust="spacing" textLength="182.6665" x="701.55" y="377.4989">CaptureTooLate &gt;&gt; Acquirer</text><text fill="#0000FF" font-family="sans-serif" font-size="13" lengthAdjust="spacing" textLength="87.731" x="749.0178" y="392.8095">&lt; BadRequest</text></g><!--SRC=[nLR1Rjim3BtxAxGFw7PQ3q5W84bRj42716cmqowAp2H27ScLvM3x-ycsv5YMRCL9iTriYUJZUo8fVSa4tXynoazxoYG8J2Gz0PAYW2ZA9PQ0Li0IolPl86KAHs1oWYGz0Y_KnwR-G7YdVD5gy_rPEzNM2PfEoO5J0d6iDzP0E2DKxKsGNdeKWelcJyFD2ddWWkPOKixMa6USvT12NlCqtMBota3VVxr_qo6CRmj3HrtWJ1O2pl7ixJNi2fPSYLPb-eGjQYi1k9rC5Cr12Otkxc9KVKqgToKg9It_NsnAUAf4sQO5nFMQROVY6Ct8Hq45YEctoZYslQPeZXMLZm9oQInSz1TsmYbDLlXFUR8R_WxC1rvj_2mjFmVTKrEBGYvtE-rY1pCrGoy6NoZT9IGDieFNbyKF4EI0cNo0BPLNkgtX14ATTu-xReq9Eg_Fiapma_8mRLFQjJlbXSrnYXa1cwZngxKhXJ69DCpR4NMZBKjh7MyyHILjSeqqjLz06vsX7YjkkPe-z9Q9U-oE_p83vgxwJs_Oh7zR2-GKUyz4wonxU5aMQ7JnDzighxY3LbB5wM17bLwbx93CbV2-RBrrDqJw0bL67dGGhNqbM5QcXVoDrP7Um_CSsC4PoM4WKdDjLO7ASSnVbQyTKHlflIj7z40IbXQFlpCLEUdQzrspDW5ltZUCzGvSdtp3HzrA8tJ8FQy5y- -zmSgjpsna0zRVmP4tJRTAwzG6jQbjXlhS0zAdqbMT7I1Xk3y0IIdhqZ2hOHhX0MAzyYw33G-HyB2qtv6jtmk6MDVQdq8RuR_qifk0JTexVu9UY_ALazuCFhPgmsdzgub-wJkaMoLUfcuftJJ4NCpH3vAUjBqr7dYoDI-_w2y0]--></g></svg>